<svg role="img" aria-label="Master Atelier" version="1.0" xmlns="http://www.w3.org/2000/svg"
 width="588.880088pt" height="596.615375pt" viewBox="0 0 588.880088 596.615375"
 preserveAspectRatio="xMidYMid meet"><defs><linearGradient id="gold" x1="0" y1="0" x2="1" y2="1"><stop offset="0%" stop-color="#f6e7b0"/><stop offset="35%" stop-color="#d9b35a"/><stop offset="60%" stop-color="#c9992f"/><stop offset="100%" stop-color="#e8c977"/></linearGradient></defs>
<metadata>
Created by potrace 1.16, written by Peter Selinger 2001-2019
</metadata>
<g transform="translate(-208.018089,814.924458) scale(0.100000,-0.100000)"
fill="url(#gold)" stroke="none">
<path d="M4770 8141 c0 -5 6 -12 13 -14 7 -4 6 -6 -5 -6 -9 -1 -24 -8 -33 -17
-10 -10 -24 -14 -40 -10 -13 3 -27 1 -30 -5 -4 -6 -22 -8 -45 -4 -23 4 -41 2
-45 -4 -3 -6 -19 -11 -35 -11 -15 0 -30 -3 -32 -8 -1 -4 -48 -18 -103 -31 -55
-13 -153 -41 -217 -62 -64 -22 -123 -39 -131 -39 -8 0 -20 -7 -27 -15 -7 -8
-23 -15 -35 -15 -12 0 -28 -7 -35 -14 -6 -8 -28 -20 -48 -27 -20 -6 -41 -15
-47 -19 -5 -4 -59 -33 -119 -64 -1002 -522 -1653 -1716 -1546 -2836 28 -295
144 -695 268 -925 46 -85 139 -116 228 -76 62 28 67 43 34 117 -81 180 -154
434 -192 666 -32 196 -32 612 0 813 133 833 598 1550 1296 1995 283 181 524
279 896 366 99 23 157 32 183 28 20 -3 37 -2 37 3 0 29 369 40 555 17 66 -8
133 -15 149 -15 136 0 583 -126 813 -230 74 -32 91 -22 33 20 -66 47 -398 208
-490 237 -47 14 -108 37 -136 49 -28 13 -71 26 -95 30 -24 4 -49 12 -56 17 -7
5 -21 7 -32 3 -12 -3 -48 1 -82 9 -33 9 -69 16 -79 16 -10 0 -33 8 -50 18 -25
13 -34 14 -37 5 -5 -14 -43 -18 -43 -4 0 4 -42 9 -93 9 -52 1 -106 6 -121 12
-20 7 -68 7 -162 -1 -87 -7 -139 -8 -147 -1 -6 5 -24 7 -39 5 -28 -4 -39 11
-15 20 6 3 -5 6 -25 6 -21 1 -38 -3 -38 -8z"/>
<path d="M7635 7327 c-165 -55 -424 -180 -585 -282 -285 -180 -514 -361 -759
-600 -280 -273 -611 -673 -866 -1045 -32 -47 -92 -134 -134 -193 -42 -60 -85
-123 -95 -140 -49 -82 -47 -80 -61 -66 -17 19 -215 486 -215 508 0 10 -7 24
-15 31 -8 7 -15 19 -15 27 0 12 -34 68 -51 83 -3 3 -31 58 -63 123 -32 65 -64
123 -71 130 -6 7 -38 51 -69 97 -32 47 -75 109 -96 139 -22 29 -37 57 -35 62
3 4 -3 10 -14 14 -11 3 -44 34 -74 68 -47 54 -53 65 -44 85 14 30 -16 54 -56
47 -29 -5 -177 84 -177 106 0 5 -7 9 -16 9 -14 0 -14 3 -4 15 10 12 10 18 0
30 -14 16 -56 20 -64 6 -7 -10 -155 40 -189 64 -13 9 -44 15 -78 15 -36 0 -59
5 -61 12 -8 22 -144 24 -152 2 -9 -22 17 -44 51 -44 33 0 139 -50 211 -98 120
-82 235 -242 248 -349 4 -26 12 -55 19 -63 33 -42 63 -428 34 -446 -7 -4 -9
-22 -4 -51 4 -29 2 -49 -5 -58 -7 -8 -9 -22 -6 -31 16 -42 -49 -320 -130 -556
-273 -790 -799 -1360 -1351 -1464 -141 -26 -322 -16 -438 25 -49 18 -98 35
-107 38 -31 10 -20 -20 26 -68 251 -262 641 -338 1006 -197 609 236 1152 1051
1277 1918 3 19 10 40 15 47 5 6 11 60 14 120 3 59 10 121 16 136 8 21 8 34 -1
51 -14 26 -11 78 5 83 18 6 281 -451 466 -814 63 -121 63 -121 40 -145 -13
-13 -94 -129 -179 -258 -639 -965 -1072 -1450 -1634 -1827 -103 -70 -324 -194
-415 -234 -134 -59 -81 -68 83 -13 364 119 806 416 1178 789 294 296 689 793
1034 1303 23 34 46 60 51 57 5 -3 100 -185 210 -403 264 -526 402 -774 420
-756 5 5 -8 57 -30 119 -81 232 -275 770 -361 1004 -49 135 -89 248 -89 252 0
8 226 326 323 453 256 338 594 732 612 714 4 -4 -15 -60 -43 -125 -92 -217
-95 -225 -162 -443 -43 -139 -93 -341 -105 -420 -3 -25 -10 -58 -15 -75 -27
-90 -50 -370 -50 -597 0 -1149 614 -1999 1490 -2063 118 -8 269 8 408 43 149
38 143 48 -35 55 -223 7 -366 42 -548 135 -444 224 -774 762 -872 1421 -25
169 -25 652 1 846 130 999 621 1948 1295 2504 57 47 116 96 130 108 33 27 19
44 -24 30z"/>
<path d="M7824 5843 c50 -345 43 -723 -20 -1048 -120 -616 -473 -1226 -944
-1628 -58 -50 -108 -96 -112 -103 -13 -20 120 -204 148 -204 37 0 245 188 391
355 546 619 787 1498 639 2325 -22 121 -33 171 -67 303 -6 22 -16 37 -25 37
-12 0 -15 -8 -10 -37z"/>
<path d="M5960 2632 c-198 -74 -475 -134 -694 -152 -337 -27 -658 2 -1000 90
-135 34 -168 37 -191 14 -36 -37 22 -77 210 -147 559 -207 1241 -218 1801 -27
131 44 130 42 40 148 -43 50 -83 92 -89 94 -7 3 -41 -7 -77 -20z"/>
</g>
</svg>
